<mxfile host="app.diagrams.net" modified="2024-05-30T07:15:10.250Z" agent="Mozilla/5.0 (Windows NT 10.0; Win64; x64) AppleWebKit/537.36 (KHTML, like Gecko) Chrome/125.0.0.0 Safari/537.36" etag="J0nLjzxsL9WnclkbgstM" version="24.3.1" type="github">
  <diagram name="Page-1" id="0KW9mrcXPOmYRZ7bN-s6">
    <mxGraphModel dx="784" dy="400" grid="1" gridSize="10" guides="1" tooltips="1" connect="1" arrows="1" fold="1" page="1" pageScale="1" pageWidth="827" pageHeight="1169" math="0" shadow="0">
      <root>
        <mxCell id="0" />
        <mxCell id="1" parent="0" />
        <mxCell id="mf72IKmzpZca9wISiKS5-1" value="1. Appearance Model : MBLBP feature extraction class&lt;div&gt;2. Motion Model : Kalman Filter class&lt;/div&gt;&lt;div&gt;3. Searching Model&lt;/div&gt;&lt;div&gt;4. initialization class&lt;/div&gt;&lt;div&gt;5. tracking class&lt;/div&gt;&lt;div&gt;&lt;br&gt;&lt;/div&gt;" style="rounded=0;whiteSpace=wrap;html=1;align=left;" vertex="1" parent="1">
          <mxGeometry x="50" y="170" width="370" height="150" as="geometry" />
        </mxCell>
        <mxCell id="mf72IKmzpZca9wISiKS5-2" value="&lt;b&gt;Components&lt;/b&gt;&lt;div&gt;&lt;b&gt;&lt;br&gt;&lt;/b&gt;&lt;/div&gt;" style="text;html=1;align=center;verticalAlign=middle;whiteSpace=wrap;rounded=0;" vertex="1" parent="1">
          <mxGeometry x="205" y="180" width="60" height="20" as="geometry" />
        </mxCell>
      </root>
    </mxGraphModel>
  </diagram>
</mxfile>
